<?xml version="1.0" standalone="no"?>
<!DOCTYPE svg PUBLIC "-//W3C//DTD SVG 20010904//EN"
 "http://www.w3.org/TR/2001/REC-SVG-20010904/DTD/svg10.dtd">
<svg version="1.0" xmlns="http://www.w3.org/2000/svg"
 width="600.000000pt" height="600.000000pt" viewBox="0 0 600.000000 600.000000"
 preserveAspectRatio="xMidYMid meet">
<metadata>
Created by potrace 1.14, written by Peter Selinger 2001-2017
</metadata>
<g transform="translate(0.000000,600.000000) scale(0.100000,-0.100000)"
fill="#000000" stroke="none">
<path d="M1112 4501 c-57 -49 -103 -93 -103 -98 0 -4 40 -36 89 -70 l90 -63
61 119 c33 66 61 124 61 130 0 8 -82 72 -92 71 -2 0 -49 -41 -106 -89z"/>
<path d="M1677 4518 c-9 -5 -47 -93 -47 -109 0 -7 231 -102 235 -97 5 6 65
194 65 203 0 12 -234 15 -253 3z"/>
<path d="M1545 4457 c-45 -14 -158 -67 -154 -71 6 -5 128 -36 143 -36 10 0 51
111 43 116 -1 1 -15 -3 -32 -9z"/>
<path d="M627 4307 l-57 -32 -26 -83 c-14 -46 -24 -85 -22 -87 5 -5 231 -75
242 -75 9 0 50 121 83 241 4 13 -13 23 -74 43 -43 14 -80 26 -83 26 -3 -1 -31
-15 -63 -33z"/>
<path d="M2140 4310 c0 -5 -20 -51 -45 -102 -25 -51 -45 -97 -45 -103 0 -5 38
-30 85 -54 46 -25 83 -46 82 -48 -2 -1 -42 -4 -90 -5 -69 -2 -87 -6 -88 -18
-1 -8 -1 -66 -1 -129 l0 -113 -56 6 c-31 4 -69 8 -85 10 -32 4 -34 3 -41 -50
-4 -22 -8 -49 -10 -61 -3 -11 -7 -38 -10 -59 -14 -91 -15 -94 -49 -95 -18 0
-39 -2 -47 -3 -8 -2 -44 -6 -79 -10 -79 -8 -83 -11 -77 -44 3 -15 8 -49 11
-77 3 -27 8 -59 10 -70 2 -11 4 -33 4 -48 l1 -29 68 7 c37 4 76 9 87 10 11 2
23 4 27 4 3 1 11 24 17 52 43 199 218 354 411 364 89 5 152 -9 235 -49 204
-101 298 -330 224 -550 -84 -248 -377 -371 -618 -258 -70 33 -179 139 -210
206 -12 27 -29 79 -38 115 -8 36 -16 71 -18 77 -2 7 -40 10 -107 10 l-103 -1
-2 -75 c-1 -41 -2 -99 -2 -128 l-1 -54 -57 6 c-32 3 -62 5 -68 5 -6 1 -9 25
-7 60 3 44 -1 68 -17 99 -21 41 -68 86 -100 97 -16 5 -20 19 -26 91 l-7 84
-67 -5 c-36 -4 -77 -8 -91 -10 -14 -2 -49 -7 -78 -10 l-54 -7 6 -42 c3 -22 8
-77 12 -121 4 -44 8 -84 9 -90 1 -5 3 -16 3 -23 2 -9 19 -11 75 -6 l73 6 0
-57 c-1 -31 2 -59 6 -61 4 -3 40 -7 80 -10 131 -10 133 -11 131 -29 -8 -94
-20 -218 -22 -224 -1 -2 -9 6 -18 18 l-18 21 -108 -66 c-90 -55 -106 -69 -103
-87 19 -103 116 -178 208 -162 42 8 117 51 125 73 4 9 -8 44 -30 84 -20 37
-37 70 -37 74 0 4 153 -1 155 -6 0 0 0 -51 0 -112 -1 -62 1 -120 3 -128 8 -31
164 -134 273 -181 196 -84 437 -107 644 -62 11 2 31 6 44 9 53 11 168 56 230
90 231 126 411 349 496 614 42 129 53 215 49 369 -8 341 -174 663 -442 855
-97 70 -299 150 -396 158 -35 3 -39 0 -42 -22 -2 -14 -8 -54 -14 -90 -5 -36
-12 -85 -15 -110 -3 -25 -8 -52 -10 -60 -2 -8 -7 -38 -10 -66 -3 -28 -7 -60
-9 -71 -3 -11 -7 -44 -11 -74 -4 -30 -8 -55 -8 -56 -10 -9 -87 -5 -87 6 0 4
12 8 28 7 l27 -1 0 139 c0 118 -2 139 -16 145 -14 5 -9 21 32 106 26 55 48
103 48 106 1 8 -205 109 -220 109 -5 0 -9 -4 -9 -10z m-304 -1512 c0 -76 -3
-138 -8 -139 -34 -4 -126 -2 -134 3 -5 4 -7 39 -4 85 4 43 6 103 6 133 l-1 56
70 -1 70 0 1 -137z"/>
<path d="M4341 4249 c-496 -104 -851 -545 -853 -1059 -1 -156 18 -265 67 -396
172 -457 668 -751 1138 -675 308 50 605 257 741 515 l26 49 -237 142 c-131 78
-246 144 -255 148 -13 5 -25 -5 -48 -37 -61 -90 -181 -170 -290 -195 -25 -6
-79 -9 -120 -7 -284 11 -494 307 -410 578 64 206 251 343 455 332 126 -7 253
-70 338 -166 28 -32 54 -58 59 -58 10 0 445 266 469 287 21 18 15 45 -25 103
-136 195 -324 334 -556 410 -109 36 -144 41 -290 45 -86 3 -139 -2 -209 -16z"/>
<path d="M1422 4253 c-27 -4 -42 -16 -82 -71 -28 -37 -49 -71 -49 -77 1 -11
174 -155 186 -155 5 0 38 48 74 106 l66 106 -41 37 c-22 20 -47 42 -54 49 -13
12 -34 13 -100 5z"/>
<path d="M1090 4199 c-8 -5 -49 -24 -90 -42 l-75 -34 52 -26 51 -27 42 66 c43
68 46 78 20 63z"/>
<path d="M1821 4125 c-62 -19 -115 -36 -116 -37 -1 -2 14 -60 34 -129 l36
-126 123 35 c114 32 123 37 117 56 -3 12 -7 28 -9 36 -6 23 -36 131 -48 168
-5 17 -13 32 -16 31 -4 0 -58 -16 -121 -34z"/>
<path d="M823 3973 c-4 -9 -19 -69 -33 -133 l-27 -115 101 -20 101 -21 -1 -29
c-1 -17 -5 -69 -9 -117 l-8 -88 49 -2 c27 0 60 -2 74 -4 161 -16 160 -16 161
8 0 13 2 32 4 43 3 11 7 56 10 100 4 44 8 90 10 103 3 15 -2 22 -13 23 -9 1
-26 3 -37 4 -11 1 -50 5 -87 9 -78 9 -75 2 -53 120 8 44 14 81 11 83 -3 3
-232 53 -244 53 -1 0 -6 -8 -9 -17z"/>
<path d="M1550 3775 c-76 -9 -85 -12 -84 -30 3 -45 15 -171 19 -190 2 -11 4
-30 4 -43 1 -23 3 -23 73 -18 69 6 118 12 184 22 l31 4 -8 58 c-4 31 -10 75
-13 97 -3 22 -5 57 -6 78 l0 38 -57 -3 c-32 -1 -96 -7 -143 -13z"/>
<path d="M447 3770 c-18 -49 -43 -160 -36 -160 4 0 28 9 53 20 l46 19 -21 48
c-12 26 -25 57 -29 68 -6 16 -9 17 -13 5z"/>
<path d="M718 3399 c-54 -27 -98 -52 -98 -55 0 -3 26 -55 57 -114 l57 -108
102 51 102 52 -25 55 c-14 30 -37 81 -51 113 -14 31 -30 57 -36 56 -6 0 -55
-22 -108 -50z"/>
<path d="M571 2981 l-1 -69 132 -56 c73 -31 136 -56 141 -56 4 0 7 56 7 125
l0 125 -139 0 -138 0 -2 -69z"/>
<path d="M960 2862 c-14 -20 -27 -41 -29 -47 -2 -5 -17 -29 -32 -52 -16 -23
-29 -45 -29 -50 0 -13 243 -83 255 -73 5 5 21 29 35 54 l24 45 -27 21 c-15 12
-33 27 -40 33 -25 24 -125 107 -129 107 -1 0 -14 -17 -28 -38z"/>
<path d="M968 2592 c-27 -9 -48 -18 -48 -22 0 -3 34 -29 75 -58 41 -29 75 -49
75 -45 0 12 -42 128 -49 134 -3 3 -27 -1 -53 -9z"/>
<path d="M1017 1720 c-70 -13 -118 -81 -112 -161 4 -62 23 -98 65 -127 29 -20
44 -23 92 -20 88 6 138 63 138 155 0 108 -76 172 -183 153z m88 -101 c27 -50
12 -122 -27 -135 -51 -16 -88 18 -93 85 -5 77 87 116 120 50z"/>
<path d="M2356 1715 c-50 -17 -74 -42 -91 -91 -23 -67 0 -150 52 -188 36 -26
109 -32 156 -12 28 11 43 26 57 58 10 23 17 44 15 46 -2 2 -20 6 -40 8 -30 3
-37 -1 -45 -21 -16 -42 -88 -45 -110 -4 -27 49 -3 137 38 140 33 2 47 -2 63
-21 15 -17 40 -24 81 -21 15 1 16 5 7 28 -27 73 -105 106 -183 78z"/>
<path d="M3303 1718 c-40 -10 -73 -51 -73 -90 0 -40 35 -69 110 -91 46 -13 61
-22 58 -34 -8 -39 -80 -43 -92 -5 -5 14 -17 19 -47 20 -40 2 -41 1 -34 -26 12
-51 48 -76 117 -80 53 -3 68 0 98 20 38 26 51 59 38 103 -9 34 -22 43 -103 70
-66 22 -81 48 -30 53 19 3 33 -2 42 -14 12 -17 79 -28 87 -15 3 4 -2 21 -11
38 -23 48 -91 69 -160 51z"/>
<path d="M3616 1715 c-50 -17 -66 -34 -70 -73 -6 -46 24 -78 92 -98 31 -10 64
-24 72 -31 13 -13 13 -16 -4 -29 -28 -20 -53 -17 -78 8 -23 23 -60 33 -84 24
-22 -8 4 -65 40 -87 60 -37 169 -20 199 30 40 68 14 112 -83 142 -55 16 -70
25 -70 40 0 25 54 26 72 1 8 -11 26 -18 51 -18 40 0 42 2 27 40 -19 51 -94 75
-164 51z"/>
<path d="M4294 1718 c-80 -21 -124 -129 -88 -217 28 -66 73 -94 144 -89 35 2
66 11 83 23 54 40 73 146 39 215 -28 57 -107 87 -178 68z m101 -99 c33 -63 2
-139 -56 -139 -63 0 -88 111 -36 156 33 28 73 21 92 -17z"/>
<path d="M4665 1718 c-68 -15 -103 -61 -110 -143 -8 -91 57 -165 145 -165 81
0 126 37 146 120 11 48 -1 115 -27 146 -31 37 -96 56 -154 42z m90 -91 c29
-42 12 -130 -27 -143 -53 -16 -98 29 -92 94 6 73 81 103 119 49z"/>
<path d="M5416 1717 c-53 -16 -81 -54 -72 -101 8 -40 32 -57 116 -82 57 -17
71 -40 33 -55 -31 -12 -60 -4 -73 20 -6 13 -20 18 -47 17 -34 -1 -38 -3 -35
-26 1 -14 14 -36 28 -50 22 -22 33 -25 99 -25 66 0 77 3 99 25 14 14 27 38 30
53 10 58 -27 94 -121 117 -47 12 -63 28 -42 41 23 14 57 10 71 -9 13 -18 69
-24 83 -10 7 7 -11 45 -30 64 -26 26 -88 36 -139 21z"/>
<path d="M1277 1712 c-3 -6 -1 -278 2 -292 0 -3 18 -6 39 -5 37 0 37 1 38 43
1 23 2 45 3 50 0 4 24 8 52 8 82 2 119 34 119 105 0 38 -14 65 -43 81 -23 13
-204 21 -210 10z m167 -85 c15 -24 -10 -47 -54 -47 -38 0 -40 3 -31 62 3 22
69 11 85 -15z"/>
<path d="M1605 1714 c-6 -3 -10 -61 -9 -151 l1 -148 121 -1 c67 0 122 2 123 5
5 36 3 61 -6 62 -5 1 -41 2 -80 3 -68 1 -70 2 -73 28 -3 27 -3 27 69 30 66 3
72 5 75 25 5 30 -18 39 -88 38 -47 -2 -57 1 -61 16 -3 10 -2 20 1 23 3 3 41 6
84 6 l79 0 -3 33 -3 32 -110 1 c-60 1 -114 0 -120 -2z"/>
<path d="M1917 1712 c-2 -6 -1 -237 2 -283 1 -14 32 -19 71 -10 3 0 5 36 5 79
-1 42 0 81 3 85 2 4 17 -18 34 -50 58 -114 63 -119 105 -118 l38 0 3 153 3
153 -38 -3 -38 -4 1 -82 c0 -45 -2 -82 -6 -82 -3 0 -14 17 -25 38 -27 51 -68
116 -79 124 -5 3 -24 6 -42 6 -19 0 -35 -3 -37 -6z"/>
<path d="M2619 1707 c-1 -15 -1 -244 0 -272 1 -20 7 -21 109 -20 l107 0 1 35
1 36 -68 -1 c-63 -1 -69 1 -70 20 0 11 -1 63 -1 116 l0 96 -39 1 c-25 1 -39
-3 -40 -11z"/>
<path d="M2985 1708 c-2 -7 -27 -73 -55 -147 -28 -74 -48 -137 -44 -140 3 -3
21 -6 40 -6 28 -1 35 4 43 27 9 26 14 28 61 28 47 0 52 -2 61 -28 8 -24 15
-28 49 -28 22 0 40 3 40 7 0 9 -100 283 -106 288 -2 2 -22 6 -44 8 -27 3 -42
0 -45 -9z m75 -175 c0 -2 -14 -3 -31 -3 -33 0 -33 3 -7 70 10 24 11 23 24 -20
7 -25 14 -46 14 -47z"/>
<path d="M3869 1684 c0 -19 0 -74 0 -124 0 -158 -3 -146 34 -147 40 0 47 10
47 68 l0 45 36 -1 c43 -1 64 -25 64 -72 0 -18 3 -33 8 -34 4 -1 22 -2 40 -4
l33 -3 -4 50 c-3 27 -12 59 -20 72 -14 20 -14 25 -1 38 8 8 17 30 20 49 5 28
1 41 -19 65 -24 28 -27 29 -131 31 l-106 2 -1 -35z m175 -49 c11 -30 -5 -45
-49 -45 -43 0 -58 15 -48 48 7 18 89 16 97 -3z"/>
<path d="M4929 1708 c-1 -19 -1 -249 0 -273 1 -16 9 -20 36 -22 40 -2 37 -11
37 125 0 45 1 82 3 82 1 0 15 -46 31 -103 27 -101 28 -104 56 -102 15 1 30 4
33 7 3 3 16 45 30 93 13 48 27 90 30 93 4 4 6 -22 5 -58 -3 -138 -3 -139 28
-136 15 1 32 5 37 8 8 5 13 244 6 291 0 4 -27 6 -58 5 -63 -3 -56 7 -89 -122
-19 -73 -20 -73 -39 4 -29 120 -25 116 -102 119 -29 1 -43 -2 -44 -11z"/>
</g>
</svg>
